<svg width="12" height="12" viewBox="0 0 12 12" fill="none" xmlns="http://www.w3.org/2000/svg">
<g id="material-symbols-light:check-rounded">
<path id="Vector" d="M4.77498 7.94003L9.17597 3.53953C9.22464 3.49086 9.28197 3.46486 9.34797 3.46153C9.41397 3.45819 9.47448 3.48419 9.52948 3.53953C9.58448 3.59486 9.61214 3.65436 9.61248 3.71803C9.61281 3.78169 9.58531 3.84103 9.52997 3.89603L5.05798 8.37103C4.97697 8.45203 4.88264 8.49253 4.77498 8.49253C4.66731 8.49253 4.57298 8.45203 4.49198 8.37103L2.46697 6.34603C2.41831 6.29736 2.39298 6.23953 2.39098 6.17253C2.38898 6.10553 2.41531 6.04453 2.46998 5.98953C2.52464 5.93453 2.58414 5.90703 2.64847 5.90703C2.71281 5.90703 2.77231 5.93453 2.82697 5.98953L4.77498 7.94003Z" fill="white"/>
</g>
</svg>
